# xmcd
#
# Track frame offsets:
#	150
#	16800
#	35925
#	47925
#	63287
#	82412
#	98600
#	117342
#	131537
#	143395
#	165015
#	181782
#	195150
#	211255
#	228787
#	241172
#	264745
#
# Disc length: 3767 seconds
#
# Revision: 1
# Processed by: cddbd v1.5.2PL0 Copyright (c) Steve Scherf et al.
# Submitted via: audiograbber 1.83.01
#
DISCID=d60eb511
DTITLE=Various Artist - No 1 Country Album [CD1)
DYEAR=1997
DGENRE=Country
TTITLE0=Graeme Connors - A little further north each year
TTITLE1=Lee Kernaghan - Three chain road
TTITLE2=Crystal Gayle - Don't it make your brown eyes blue
TTITLE3=Billy Ray Cyrus - Achy Breaky Heart
TTITLE4=Marc Cohn - Walking in Memphis
TTITLE5=Nitty Gritty Dirt Band - My Bojangles
TTITLE6=Juice Newton - Angel of the morning
TTITLE7=Eddie Rabbit - I love a rainy night
TTITLE8=England Dan and JF Coley - I'd really love to see you tonight
TTITLE9=Michael Murphy - Wild fire
TTITLE10=JD Souther - You're only lonely
TTITLE11=Dr Hook - When you're in love with a beautiful woman
TTITLE12=Gordon Lightfoot - Sundown
TTITLE13=Linda Ronstadt - Blue Bayou
TTITLE14=Nilsson - Everybody's talkin'
TTITLE15=Willy Nelson - Me and Bobby McGee
TTITLE16=Peter Allen - I still call Australia home
EXTD=
EXTT0=
EXTT1=
EXTT2=
EXTT3=
EXTT4=
EXTT5=
EXTT6=
EXTT7=
EXTT8=
EXTT9=
EXTT10=
EXTT11=
EXTT12=
EXTT13=
EXTT14=
EXTT15=
EXTT16=
PLAYORDER=
